<?xml version="1.0" encoding="utf-8"?>
<!-- Generator: Adobe Illustrator 19.2.1, SVG Export Plug-In . SVG Version: 6.00 Build 0)  -->
<svg version="1.1" id="Laag_1" xmlns="http://www.w3.org/2000/svg" xmlns:xlink="http://www.w3.org/1999/xlink" x="0px" y="0px"
	 width="230px" height="82px" viewBox="0 0 230 82" style="enable-background:new 0 0 230 82;" xml:space="preserve">
<style type="text/css">
	.st0{fill:#AB1269;}
	.st1{fill:#E5A613;}
</style>
<g>
	<path class="st0" d="M63.6,59.2h1v1.5h0.1c0.6-1.1,1.5-1.8,2.9-1.8c1.2,0,2.2,0.6,2.6,1.8c0.5-1.2,1.7-1.8,2.9-1.8c2,0,3,1,3,3.2
		v6.1h-1.1v-6c0-1.5-0.6-2.3-2.1-2.3c-1.9,0-2.4,1.6-2.4,3.2v5.1h-1.1v-6.1c0-1.2-0.5-2.2-1.9-2.2c-1.9,0-2.7,1.4-2.7,3.3v5h-1.1
		V59.2z"/>
	<path class="st0" d="M78.9,64c0,1.6,0.9,3.5,3,3.5c1.6,0,2.5-0.9,2.8-2.3h1.1c-0.5,2-1.7,3.2-3.9,3.2c-2.9,0-4.1-2.2-4.1-4.8
		c0-2.4,1.2-4.8,4.1-4.8c2.9,0,4,2.5,4,5.1H78.9z M84.7,63.1c-0.1-1.7-1.1-3.2-2.9-3.2c-1.8,0-2.8,1.6-3,3.2H84.7z"/>
	<path class="st0" d="M95.3,68.2h-1v-1.7h0c-0.5,1.2-1.9,2-3.2,2c-2.7,0-4-2.2-4-4.8c0-2.5,1.3-4.8,4-4.8c1.3,0,2.6,0.7,3.1,2h0
		v-5.2h1.1V68.2z M91,67.6c2.3,0,3.2-2,3.2-3.8c0-1.9-0.8-3.8-3.2-3.8c-2.1,0-2.9,2-2.9,3.8C88.1,65.6,88.9,67.6,91,67.6z"/>
	<path class="st0" d="M97.5,55.8h1.1v1.8h-1.1V55.8z M97.5,59.2h1.1v9h-1.1V59.2z"/>
	<path class="st0" d="M106.2,61.9c-0.1-1.4-1.1-2-2.4-2c-1,0-2.1,0.4-2.1,1.6c0,1,1.1,1.3,1.9,1.5l1.5,0.3c1.3,0.2,2.6,0.9,2.6,2.5
		c0,2-1.9,2.7-3.6,2.7c-2.1,0-3.5-1-3.7-3.2h1.1c0.1,1.5,1.2,2.2,2.6,2.2c1,0,2.5-0.5,2.5-1.7c0-1-1-1.4-2-1.6l-1.4-0.3
		c-1.4-0.4-2.5-0.9-2.5-2.4c0-1.8,1.8-2.5,3.4-2.5c1.8,0,3.2,0.9,3.3,2.9H106.2z"/>
	<path class="st0" d="M115.6,62.1c-0.3-1.3-1.1-2.2-2.5-2.2c-2.1,0-3.2,1.9-3.2,3.8c0,1.9,1,3.8,3.2,3.8c1.4,0,2.5-1.1,2.6-2.6h1.1
		c-0.3,2.2-1.7,3.5-3.7,3.5c-2.8,0-4.3-2.2-4.3-4.8c0-2.6,1.5-4.8,4.3-4.8c1.9,0,3.4,1,3.6,3.1H115.6z"/>
	<path class="st0" d="M118.4,55.8h1.1v5h0c0.4-1.1,1.6-1.8,2.9-1.8c2.5,0,3.3,1.3,3.3,3.5v5.8h-1.1v-5.6c0-1.5-0.5-2.7-2.3-2.7
		c-1.7,0-2.8,1.3-2.8,3.1v5.2h-1.1V55.8z"/>
	<path class="st0" d="M139.1,62.1c-0.3-1.3-1.1-2.2-2.5-2.2c-2.1,0-3.2,1.9-3.2,3.8c0,1.9,1,3.8,3.2,3.8c1.4,0,2.5-1.1,2.6-2.6h1.1
		c-0.3,2.2-1.7,3.5-3.7,3.5c-2.8,0-4.3-2.2-4.3-4.8c0-2.6,1.5-4.8,4.3-4.8c1.9,0,3.4,1,3.6,3.1H139.1z"/>
	<path class="st0" d="M142.5,64c0,1.6,0.9,3.5,3,3.5c1.6,0,2.5-0.9,2.8-2.3h1.1c-0.5,2-1.7,3.2-3.9,3.2c-2.9,0-4.1-2.2-4.1-4.8
		c0-2.4,1.2-4.8,4.1-4.8c2.9,0,4,2.5,4,5.1H142.5z M148.3,63.1c-0.1-1.7-1.1-3.2-2.9-3.2c-1.8,0-2.8,1.6-3,3.2H148.3z"/>
	<path class="st0" d="M151,59.2h1.1v1.5h0c0.4-1.1,1.6-1.8,2.9-1.8c2.5,0,3.3,1.3,3.3,3.5v5.8h-1.1v-5.6c0-1.5-0.5-2.7-2.3-2.7
		c-1.7,0-2.8,1.3-2.8,3.1v5.2H151V59.2z"/>
	<path class="st0" d="M162.2,59.2h1.8v0.9h-1.8v6.1c0,0.7,0.1,1.1,0.9,1.2c0.3,0,0.6,0,0.9-0.1v0.9c-0.3,0-0.6,0-1,0
		c-1.5,0-2-0.5-2-2v-6.2h-1.6v-0.9h1.6v-2.7h1.1V59.2z"/>
	<path class="st0" d="M165.7,59.2h1v2.1h0c0.6-1.4,1.8-2.3,3.4-2.2v1.1c-2-0.1-3.3,1.4-3.3,3.2v4.8h-1.1V59.2z"/>
	<path class="st0" d="M178.6,68.2h-1v-1.6h0c-0.6,1.2-1.8,1.9-3.1,1.9c-2.3,0-3.2-1.3-3.2-3.4v-5.8h1.1v5.9c0.1,1.6,0.7,2.5,2.4,2.5
		c1.9,0,2.7-1.8,2.7-3.6v-4.7h1.1V68.2z"/>
	<path class="st0" d="M180.7,59.2h1v1.5h0.1c0.6-1.1,1.5-1.8,2.9-1.8c1.2,0,2.2,0.6,2.6,1.8c0.5-1.2,1.7-1.8,2.9-1.8c2,0,3,1,3,3.2
		v6.1h-1.1v-6c0-1.5-0.6-2.3-2.1-2.3c-1.9,0-2.4,1.6-2.4,3.2v5.1h-1.1v-6.1c0-1.2-0.5-2.2-1.9-2.2c-1.9,0-2.7,1.4-2.7,3.3v5h-1.1
		V59.2z"/>
</g>
<g>
	<path class="st0" d="M41.6,15.7c0,2.9-2.3,5.2-5.2,5.2c-2.9,0-5.2-2.3-5.2-5.2c0-2.9,2.3-5.2,5.2-5.2
		C39.2,10.4,41.6,12.8,41.6,15.7"/>
	<path class="st0" d="M24.1,11.5C25.9,20.7,31.5,26,40,26c8.4,0,14.8-6.5,16.1-14.7c0.7-4.7,4.1-8.2,8.7-8.2c4.9,0,8.9,4,8.9,8.9
		c0,4.9-4,8.6-8.9,8.9c-4.9,0.3-7.7,0.1-12.8,3.5c-6.6,4.5-11.3,13.5-11.3,24l0,0.3h-1.6l0-0.3c0-8.2-4.6-18.4-11.2-22.4
		c-6.2-3.7-11.8-2-15.4-1.9C6.2,24.4,1,19,1,12.6C1,6.2,6.2,1,12.6,1C18.6,1,22.9,5.3,24.1,11.5z"/>
</g>
<g>
	<path class="st1" d="M65,45l-5.8-16.2h-4.8v0.5c2.2,0.3,2.3,0.6,3.2,2.9l6.1,16.4h1.7l7.3-19.8H71L65,45z"/>
	<path class="st1" d="M73.1,36c0.8,0.1,2.2,0.2,2.2,1.9v10.7h2.2V34.8l-4.4,0.7V36z"/>
	<path class="st1" d="M76.3,28.8c-0.9,0-1.7,0.7-1.7,1.6c0,0.9,0.7,1.6,1.7,1.6c0.9,0,1.6-0.7,1.6-1.6
		C77.9,29.5,77.2,28.8,76.3,28.8z"/>
	<path class="st1" d="M86.7,34.8c-4.2,0-5.8,2.5-5.8,6.6c0,4.8,2.5,7.5,6.7,7.5c1.8,0,3.2-0.4,3.6-0.5v-1c-0.6,0.2-1.4,0.3-2.1,0.3
		c-4,0-6.1-4.1-6.1-6.9v-0.6h8.5v-0.4C91.6,36.4,89.5,34.8,86.7,34.8z M89.1,39.3h-5.9c0.1-1,0.6-3.4,3.2-3.4c1.7,0,2.7,1.5,2.7,3.1
		V39.3z"/>
	<path class="st1" d="M101.7,30.1c2.8,0,3.3,2.1,3.5,3h2.8c-0.2-2-1.8-4.3-6.1-4.3c-5.9,0-7.7,4.1-7.7,9.4c0,5.9,3,10.7,8.4,10.7
		c2.7,0,4.1-0.3,5.4-0.8v-1.2c-0.3,0.1-2.1,0.7-3.8,0.7c-6.3,0-7.2-6.1-7.2-10.2C97,33,98.6,30.1,101.7,30.1z"/>
	<path class="st1" d="M117.7,36c0.8,0.1,2.2,0.2,2.2,1.9v4.1c0,1.9-1.8,5.4-3.7,5.4c-2,0-2.4-1.8-2.4-3.7v-9l-4.4,0.7V36
		c0.8,0.1,2.2,0.2,2.2,1.9v5.6c0,3.2,0.7,5.4,4,5.4c2.6,0,4-2.5,4.3-3.5h0.1v3.2h2.2V34.8l-4.4,0.7V36z"/>
	<path class="st1" d="M129,38.3L129,38.3l-0.1-3.4l-4.4,0.7V36c0.8,0.1,2.2,0.2,2.2,2v10.6h2.2v-7c0-1.8,0.4-4.6,3.2-4.6
		c0.3,0,0.6,0.1,1,0.2v-2.4c-0.1,0-0.2,0-0.3,0C130.1,34.8,129.4,37.1,129,38.3z"/>
	<path class="st1" d="M138.4,32.1c0.9,0,1.6-0.7,1.6-1.6c0-0.9-0.8-1.6-1.6-1.6c-0.9,0-1.7,0.7-1.7,1.6
		C136.7,31.3,137.5,32.1,138.4,32.1z"/>
	<path class="st1" d="M135.2,36c0.8,0.1,2.2,0.2,2.2,1.9v10.7h2.2V34.8l-4.4,0.7V36z"/>
</g>
</svg>
