<svg id="Laag_2" xmlns="http://www.w3.org/2000/svg" viewBox="0 0 261.5 88.4"><style>.st0{fill:#0a1758}.st1{fill:#f1e800}</style><path class="st0" d="M21.8 87.4L0 20.5h13.3l15.9 55.3 15.9-55.3h13.3L36.5 87.4H21.8zM65.1 31.1V20.2h12.8v8.2l-12.8 2.7zm.3 56.3V40.7h12v46.7h-12zM129.8 74.1c0 7.2-5.4 14.1-20 14.1-9.5 0-16.1-1.6-21-2.9l3-9.1c6.1 1.6 12.1 2.5 17.5 2.5 5.9 0 8.5-1.4 8.5-5.7 0-3.7-2.4-4.8-6.5-4.8H104c-7.8 0-15.2-3.2-15.2-12.9v-.7c.1-10.9 7.8-14.7 16.8-14.7 8 0 16.9.9 23 1.9l-3 9.2c-6.3-.9-12.9-1.6-18.8-1.6-4.8 0-6.1 1.8-6.1 4.9 0 3.2 1.1 4.6 5.5 4.6h6.8c7.9 0 16.8 2 16.8 13.3v1.9zM140.1 31.1V20.2h12.8v8.2l-12.8 2.7zm.4 56.3V40.7h12v46.7h-12z"/><g><path class="st0" d="M219.3 33.9c.1.1.1.1.2 0s.1.1 0 .1-.1.1-.1.1c.1 0 .3 0 .5.2s.3.6.2.7c-.1.1-.1.1-.2.3-.1.2.2.2.2.2l.6-.6c.1-.1.2-.4.2-.6 0-.2.1-.8-.2-1.1-.3-.3-.4-.4-.7-.4 0 0 0-.1.1-.2.3-.2 1.3-1.3 1.5-1.6.4-.4 3-3.1 3.3-3.5.3-.4 1.7-2 2.3-2.6.6-.7 1.6-1.8 1.8-2.4.2-.5.2-1 .1-1.3-.2-.5-.5-.3-.6 0-.1.2-.1.7-.5 1.5-.1.2-.4.8-.8 1.3-.8 1-2.6 3-3.2 3.7-1.5 1.6-4.1 4.4-4.2 4.5-.1.1-.2.2-.3.1-.1-.2-.2-.1-.2 0s0 .2-.1.2-.1-.1 0-.3c0-.1 0-.1-.1-.1s-.2 0-.2.1c-.1.1-.1-.1-.2-.1v-.2c0-.1-1.8-6.4-2-6.8-.2-.9-.6-2.2-.8-3.1-.2-.9-.3-2-.2-2.8.1-.7.3-.8.4-1.1.1-.3-.2-.7-.5-.4-.2.2-.6.6-.6 1.4 0 .8 0 1.9 1 5.3.3 1.2 1.9 6.7 2 7.1.1.3.2.5.2.6 0 .1-.2.1-.3.1-.1 0 0 .2 0 .3 0 .1 0 .1-.1.2-.1 0-.4 0-.7.3-.1.1-.2.2-.2.3.2.5.4 1 .4 1.1 0 .1.1.2.1.3 0 .1.1.2.1.2.1.1.3.1.2-.1-.2-.2-.1-.6.1-.8.2-.2.4-.1.4-.1s.1 0 0-.1v-.2c.1 0 .2.1.2 0s.1-.1.2-.1H218.9l.4.4zM206.7 52.8h-.2c-.1-.1-.1-.2-.2-.3-.2-.2-.5-.1-.7 0-.2.1-.7.6-.9.9-.4.6-1.3 1.4-1.5 1.5-.4.2-.7.3-.7-.6.1-.7-.4-1.1-.8-1.2-.5-.1-1.1.5-1.4.4-.3-.1-.2-.5-.1-1.1.1-.4-.2-.7-.5-.9-.4-.2-1.5.2-2.1.6-.3.2-1.1.8-1.9 1.4-.8.6-1.7 1.1-2.1 1.4-.2.1-.3.1-.5.2.3.2.5.5.4.9-.2.7-.3 1.2.2 1.3.4.1 1.3-.6 1.9-.4.3.1.5.2.8.3v13c0 6.4-2.1 9.1-9.7 9.1h-.5c-7.6 0-9.7-2.6-9.7-9.1V58.1c0-6.4 2.2-9.1 9.7-9.1h.5c2.4 0 4.2.3 5.6.8.1.2.2.3.3.5.1.7.1 1.7-.9 2.2-1 .6-7.3 3.6-8 3.9-.7.4-1.7.8-2.1 1.2-.4.3-.6.8-.4 1.1.7.7 2.3.3 3.3 0 1.2-.5 4.6-2.6 5.5-3.2.4-.3.8-.4 1.2-.5-.1-.2-.1-.5.3-.8.3-.3 1.1-.8 1.6-1.1.4-.2 1.1-.6 1.9-1 1-.5 2.1-1.2 2.9-1.6-.1 0-.2-.1-.3-.2-.1-.1-.1-.4.2-.7.3-.2.8-.6 1.2-.8.1-.1.4-.2.7-.4v-.1c0-.3-.5-1-1.1-1.2-.6-.3-.3-.7.1-1.1.4-.4.5-.7.6-1.3 0-.8-1.2-1-1.1-1.7.1-.6.5-.8.8-1.1.1-.1.3-.3.3-.5.1-.8-.4-1.2-.5-1.5-.1-.4.1-.9.6-1.3.3-.3.7-.5.7-.9 0-.7.7-1.3 1.4-1.6 1.2-.4 3.9-1.2 6.4-1.4h.2c-.2 0-.5-.1-.7-.1-.2 0-.5-.1-.7-.1-1.2-.2-2.6-.3-3.6-.5-.9-.2-1.3-.4-1.8-.9-.3-.3-.7-.9-.8-1.7-.1-.6 0-1.4-.3-2-.1-.3-.7-.9-.7-1.7 0-.8.4-1 0-1.8-.4-.7-.5-1.1-.4-1.6.1-.6.1-.9-.2-1.5-.3-.6-.4-1.2-.3-1.7 0-.6 0-.6-.2-1.1-.3-.5-.2-.7-.4-1.1-.2-.5 0-.5-.2-1.3s-.5-.6-.8-2.2c-.2-1.1-.5-.8-.6-1.9-.1-1.1-.4-3.5 2.7-2.9 3.1.6 6.8 3.8 9.3 6.7 1.4 1.7 2.4 3.3 3.2 4.6-.5-1.2-.9-2.1-1.1-2.5-.8-1.6-2.7-5.6-6.1-9.7-3.5-4.1-8.8-8.8-13.3-9.6-4.4-.8-4 2.5-3.8 4.2.1 1.6.5 1.1.9 2.7.4 2.2.8 1.9 1.2 3.1.2.6.1 1.2.3 1.8.3.7.2.9.6 1.6.2.4.4 1 .3 1.5 0 .8.1 1.6.5 2.4.4.8.4 1.6.3 2.1-.2.8 0 1.4.5 2.3.6 1.1 0 1.5 0 2.6 0 1.2.9 2.2 1 2.6.2.6 0 1.4.1 2.2.1.6.4 2.3 1.3 3.2.8.8 1.5 1 2.7 1.4 1 .3 3.3.5 5.7.7-.5 0-1 .1-1.5.1-1.1.1-5.1.7-6 1.2-1.2.6-1.9 1-1.9 1.9 0 .4-.5.6-1 1-.6.4-1 1-.8 1.4-1.2-.1-2.5-.2-3.8-.2h-2.1c-16.7 0-20.9 7.9-20.9 19.6v9.1c0 11.7 4.2 19.6 20.9 19.6h2.1c16.7 0 20.9-7.9 20.9-19.6v-9.1c0-2.7-.2-5.2-.8-7.4-.8.7-.9.6-1.1.7zM234.8 62.2c-.3-.4-1.1-1.6-1.5-2.1-.3-.5-1-1.3-1.3-1.6-.3-.3-.8-.5-1.3-.4-.5.1-.7.8-.7 1 .1.3.1.7-.2.8-.4.2-1-.7-1.1-.9-.5-.6-1-.3-1 0-.1.2 0 1-.3 1.2-.4.3-1 0-1.4-1.4-.2-.6-.5-1.3-.6-1.6-.2-.3-.5-.2-.6-.2h-.1c.2.7.4 1.4.6 1.9.5 1.2.8 2.3 1.4 2.6.4.1.9-.1 1-.1.1 0 .6 0 .9.3.2.4.6 1.2.9 2 .6 1.6 1.4 2.1 1.9 1.7.3-.2.2-1.2.3-1.4.1-.3.7-.7 1.4 0 .2.2 1 1.4 1.5 1.1.4-.2.4-.6.3-1-.1-.2.2-.8.7-1.1-.4-.3-.7-.7-.8-.8zM260.2 14.3c-1.3-.5-2.6-.9-4-.9s-4.3.3-6.7 1.1c-2.4.8-6 2.3-8.5 3.8-2.4 1.5-5.4 3.3-7.4 5.3.3-.2.5-.3.8-.5 1.8-1.1 4.3-2.1 6-2.7 1.7-.6 3.8-.8 4.8-.8s1.9.3 2.8.7c.9.4.9 1 .9 1.5-.1.8-.8 2-1.3 2.4-.3.3-.5.4-.7.7-.2.4-.5.6-.7.9-.3.3-.7.6-.8.7-.2.1-.3.2-.4.6-.1.6-1.2 1.6-1.5 1.9-.3.3-.3.9-.7 1.5-.2.2-.8.8-1 1.2-.2.3-.1 1-.4 1.4-.2.3-.6.6-.7.7l-.3.3c-.1.1-.1.2-.2.4s-.1.7-.2.9c0 .3-.2.4-.4.7-.2.3-.6.6-.9.9-.1.1-.4.8-.5 1.1-.1.3-.6.9-.9 1.3-.3.3-.8.9-1.8 1.1-1 .3-1.8.2-2.4 0-.6-.1-2.5-.8-3.6-1.1h.1c.1.1.3.2.4.3.2.1.5.3.7.5.5.3 1 .6 1.5 1 .3.2 1.8 1.2 2.5 2.1.4.5.7 1.1.8 1.4 0 .3-.3.3-.1.7 0 .1.5.8.6 1 .3.6-.4 1-.7 1.2-.5.4-.6 1-.5 1.3.2.4.5 1 .4 1.3-.2.3-.4.2-.7.3-.4.1-.9.7-1 1.4-.1.7.3 1.3.3 1.6 0 .3-.3.3-.7.3-.4 0-.6.2-.9.6l1.3 1.3c.2.3.6.7.7.9.1.2 0 .5-.2.5s-.5 0-1.1-.3c-.3-.2-.6-.4-.8-.7 0 .1 0 .2.1.3.2.4.7 1.3 1.2 1.8.4.5 4.2 4.6 4.3 4.9.1.1.1.3 0 .4.4.5 1 1.1 1.4 1.6.5.6 1.6 2.1 2.1 2.6.3.3 1.2 1.4 2.1 1.9.9.5 1.4.6 1.8.5.4 0 .5-.4.3-.8-.1-.3-5.4-5.5-5.9-6.1-.6-.6-1.4-1.7-1.6-2.2-.2-.5-.4-2-.1-2.5.3-.5.6-.7 1.2-.7.5 0 .9 0 1-.4 0-.4-.6-1.2-.4-2 .1-.8.9-1.5 1.4-1.6.5-.1.8 0 1-.4.2-.3-.3-1.1-.6-1.6-.2-.4-.1-1.2.6-1.6.4-.3 1.4-.8.9-1.5l-.8-1.2c-.3-.5.1-.6.1-.9 0-.3-.5-1.1-1.1-1.7-1-1.1-3.1-2.2-3.6-2.5-.8-.4-1.7-.8-2.7-1.1.1 0 .2.1.2.1.5.2 2.6.7 3.6.9 1 .2 3.3.5 4.3.4.8-.1 2-.7 2.4-1.1.4-.5 1.1-1.3 1.2-1.8.1-.5.5-1.4.7-1.6.4-.4.9-.9 1.2-1.3.3-.4.5-.6.5-1 .1-.4.1-1 .3-1.3.1-.3.1-.4.3-.6.2-.2.3-.2.5-.4s.7-.7 1-1.1c.4-.6.3-1.6.6-2 .3-.5 1.2-1.3 1.4-1.6.6-.8.5-1.7 1-2.1.5-.4 2-1.9 2.2-2.7.1-.5.3-.7.6-.8.2-.1.8-.6 1.2-1 .4-.4.7-.8 1-1.3.3-.5.6-.6 1-1 .6-.6 1.6-2.3 1.8-3.5-.3-.7-.2-1.6-1.6-2.2z"/><path class="st1" d="M248.1 20.3c-.9-.4-1.8-.6-2.8-.7-1 0-3 .2-4.8.8-1.7.6-4.3 1.6-6 2.7-.3.2-.5.3-.8.5-1.6 1-3.3 2.1-4.5 3.3-.4.4-1 .9-1.6 1.5 1-.8 2.2-1.5 3.2-2.2.2-.1.3-.2.5-.3 1.3-.7 2.9-1.4 4.1-1.8 1.3-.5 2.9-.6 3.6-.6.7 0 1.4.2 2.1.5.7.3.7.8.6 1.1-.1.6-.6 1.5-1 1.9-.2.2-.4.3-.6.6-.2.3-.4.5-.6.7l-.6.6c-.1.1-.3.2-.3.4-.1.5-.9 1.2-1.2 1.5-.3.2-.2.7-.5 1.2-.1.2-.6.6-.7.9-.1.3-.1.8-.3 1.1-.2.2-.4.5-.5.6-.1.1-.2.1-.2.2-.1.1-.1.2-.2.3-.1.2-.1.5-.1.7 0 .2-.1.3-.3.6-.2.2-.4.5-.7.7-.1.1-.3.6-.4.9-.1.3-.4.7-.7 1-.2.2-.5.6-1.3.7-.8.2-1.5.1-2 0 1.1.3 3 1 3.6 1.1.7.2 1.4.2 2.4 0 1-.3 1.5-.8 1.8-1.1.3-.3.8-.9.9-1.3.1-.3.4-1 .5-1.1l.9-.9c.2-.3.3-.4.4-.7 0-.3.1-.7.2-.9.1-.2.1-.3.2-.4l.3-.3.7-.7c.3-.4.2-1.1.4-1.4.2-.4.8-.9 1-1.2.4-.6.3-1.2.7-1.5.3-.3 1.4-1.3 1.5-1.9.1-.3.2-.5.4-.6.2-.1.6-.4.8-.7.3-.3.5-.5.7-.9.2-.4.5-.5.7-.7.5-.4 1.1-1.6 1.3-2.4.2-.8.2-1.4-.8-1.8zM211.4 21.9c-.7-1.3-1.8-3-3.2-4.6-2.5-2.9-6.2-6.1-9.3-6.7-3.1-.6-2.8 1.8-2.7 2.9.1 1.1.4.8.6 1.9.3 1.5.6 1.3.8 2.2.2.8 0 .8.2 1.3s.1.6.4 1.1c.3.5.2.5.2 1.1 0 .6 0 1.1.3 1.7.3.6.3.9.2 1.5-.1.6 0 1 .4 1.6.4.8 0 1 0 1.8s.6 1.5.7 1.7c.3.6.2 1.5.3 2 .1.9.4 1.4.8 1.7.6.5 1 .7 1.8.9 1 .2 2.4.4 3.6.5.3 0 .5.1.7.1-.2 0-.3-.1-.5-.1h-.1c-.6-.1-.8-.2-1.3-.5-.4-.3-.5-.6-.6-1.2 0-.2 0-1.2-.2-1.8-.1-.2-.6-.8-.6-1.4 0-.6.3-.8 0-1.4-.3-.5-.4-.8-.3-1.2 0-.4.1-.7-.2-1.1-.2-.4-.3-.9-.3-1.3s0-.4-.2-.8-.2-.5-.3-.9c-.1-.4 0-.4-.2-1s-.4-.5-.6-1.6c-.2-.9-.4-.6-.5-1.5-.1-.9-.3-2.7 2.1-2.2 2.4.4 5.3 2.9 7.2 5.1.5.5.9 1 1.2 1.6.2.2.3.4.5.7 0-.5-.4-1.2-.9-2.1zM237.9 63.4c-.1-.3-3.9-4.4-4.3-4.9-.4-.5-1-1.4-1.2-1.8 0-.1-.1-.2-.1-.3-.2-.2-.4-.4-.4-.5-.3-.3-.9-1.3-1.2-1.7-.3-.4-.9-1-1.1-1.1-.2-.2-.7-.6-1.2-.3-.3.2-.3.4-.3.6 0 .2 0 .7-.2.8-.3.1-.6-.5-.7-.6-.5-.5-.8-.3-.9.1-.1.1-.1.8-.5.9-.4.1-.8-.7-1-1.1-.3-.8-.5-1.1-.6-1.3-.4-.5-.6-.4-.9-.1-.2.1-.7-.5-1-1.5-.1-.2-.3-.9-.6-1.9-.1.2-.1.3-.1.3.2.9.4 1.9.5 2.2.1.5.6 2.6 1 3.8.3 1 .5 1.9 1 2.1.2.1.5 0 .6 0h.1c.1 0 .5 0 .6.2.2.3.4 1 .6 1.6.4 1.3 1 1.7 1.4 1.4.2-.2.2-1 .3-1.2.1-.2.5-.5 1 0 .2.2.7 1.1 1.1.9.3-.2.3-.5.2-.8 0-.2.2-.8.7-1 .4-.1 1 .2 1.3.4.3.3.9 1.1 1.3 1.6.3.5 1.1 1.7 1.5 2.1.1.2.4.5.8.9.2.2.5.5.8.6.7.4 1 .4 1.3.4.1 0 .2-.1.2-.2.1-.3.1-.4 0-.6zM232.4 42.2c.1.2-.3.5 0 .8.2.2.4.4.5.6.2.5-.4.8-.6 1-.3.2-.4.6-.3 1 .1.4.4.8.3 1.1-.1.2-.3.2-.6.3-.6.2-.8.5-.8 1.1 0 .5.3.9.2 1.3-.1.2-.4.3-.6.3-.3 0-.6.2-.7.5-.2.5-.2 1.1 0 1.6.1.3.6 1 1 1.4.2.2.9.9 1.5 1.6.2-.4.5-.5.9-.6.4 0 .7 0 .7-.3s-.4-1-.3-1.6c.1-.7.7-1.2 1-1.4.4-.1.6-.1.7-.3.2-.3-.2-.9-.4-1.3-.1-.3 0-.9.5-1.3.3-.3 1-.7.7-1.2-.1-.2-.6-.9-.6-1-.2-.4.1-.5.1-.7 0-.3-.4-.9-.8-1.4-.7-.9-2.2-1.9-2.5-2.1-.5-.3-1-.7-1.5-1 .4.3.8.5.9.7.5.2.6.7.7.9zM211.1 47.7c-.7.9-1 1-1.2 1-.3 0-.2-.2-.3-.3-.1-.2-.3-.1-.5 0-.1.1-.6.5-.7.7-.2.3-.5.6-.8.8-.2.1-.3.3-.5.3h-.1c-.3.1-.5 0-.4-.5.1-.7-.3-.9-.6-.9-.4-.1-.9.4-1.1.3-.4-.2-.1-1.3-.5-1.5-.3-.2-1.2.1-1.7.4-.5.3-2.6 1.8-3.3 2.1-.5.2-1.1.4-1.6.2-.8.5-1.9 1.1-2.9 1.6-.8.4-1.5.8-1.9 1-.5.3-1.3.8-1.6 1.1-.4.4-.5.6-.3.8.4.4 1.2.3 1.9.1.2-.1.3-.1.5-.2.4-.2 1.3-.8 2.1-1.4.8-.6 1.6-1.2 1.9-1.4.6-.4 1.7-.8 2.1-.6.3.2.6.5.5.9-.1.6-.2 1 .1 1.1.3.1.9-.5 1.4-.4.5.1.9.5.8 1.2-.1.9.3.8.7.6.2-.1 1.1-.8 1.5-1.5.2-.3.7-.8.9-.9.2-.1.5-.2.7 0 .1.1 0 .2.2.3h.2c.3-.1.4 0 .9-.6.2-.2.3-.4.6-.7 1.1-1.3 1.9-2.2 2.5-3 .5-.8.9-1.1 1.2-1.7v-.1c-.2.5-.4.8-.7 1.2zM208.3 34.8h-.2H207.8c-2.5.2-5.2 1-6.4 1.4-.6.2-1.4.9-1.4 1.6 0 .4-.4.6-.7.9-.5.4-.7.8-.6 1.3.1.4.6.8.5 1.5 0 .2-.1.3-.3.5-.3.3-.8.5-.8 1.1-.1.8 1.1.9 1.1 1.7 0 .5-.2.8-.6 1.3-.4.4-.7.8-.1 1.1.6.3 1 .9 1.1 1.2v.1c1.2-.7 3.6-1.9 4.1-2.2.2-.1.4-.4.5-.6.1-.2.1-.5.1-.8 0-.3-.6-.7-.7-.7-.4-.2-.2-.5.1-.9.2-.2.5-.6.5-1s-1-.9-.9-1.4c.1-.5.8-.8.9-1.2.1-.2-.2-.9-.4-1.2-.1-.3 0-.7.5-1 .3-.2.6-.3.6-.7 0-.6.4-.8 1.1-1.2.4-.2 1.6-.5 2.6-.7-.2-.1-.2-.1-.3-.1z"/></g></svg>